<?xml version="1.0" standalone="no"?>
<!DOCTYPE svg PUBLIC "-//W3C//DTD SVG 20010904//EN"
 "http://www.w3.org/TR/2001/REC-SVG-20010904/DTD/svg10.dtd">
<svg version="1.0" xmlns="http://www.w3.org/2000/svg"
 width="128.000000pt" height="128.000000pt" viewBox="0 0 128.000000 128.000000"
 preserveAspectRatio="xMidYMid meet">
<metadata>
Created by potrace 1.14, written by Peter Selinger 2001-2017
</metadata>
<g transform="translate(0.000000,128.000000) scale(0.100000,-0.100000)"
fill="#000000" stroke="none">
<path d="M12 1268 c-8 -8 -12 -53 -12 -135 0 -112 2 -123 20 -133 15 -8 24 -6
40 10 17 17 20 33 20 105 l0 85 85 0 c72 0 88 3 105 20 16 16 18 25 10 40 -10
18 -21 20 -133 20 -82 0 -127 -4 -135 -12z"/>
<path d="M1000 1260 c-8 -15 -6 -24 10 -40 17 -17 33 -20 105 -20 l85 0 0 -85
c0 -72 3 -88 20 -105 16 -16 25 -18 40 -10 18 10 20 21 20 133 0 82 -4 127
-12 135 -8 8 -53 12 -135 12 -112 0 -123 -2 -133 -20z"/>
<path d="M234 1047 c-2 -7 -3 -69 -2 -138 l3 -124 75 0 75 0 3 58 3 57 84 0
85 0 0 -310 0 -310 -37 0 c-59 0 -64 -8 -61 -86 l3 -69 175 0 175 0 3 69 c3
78 -2 86 -60 86 l-38 0 0 310 0 310 85 0 84 0 3 -57 3 -58 75 0 75 0 0 135 0
135 -403 3 c-326 2 -404 0 -408 -11z"/>
<path d="M17 278 c-15 -8 -17 -27 -17 -131 0 -82 4 -127 12 -135 8 -8 53 -12
135 -12 107 0 123 2 132 18 6 11 6 24 0 35 -8 14 -25 17 -104 17 l-95 0 0 86
c0 109 -19 147 -63 122z"/>
<path d="M1220 270 c-17 -17 -20 -33 -20 -110 l0 -90 -95 0 c-80 0 -96 -3
-104 -18 -6 -11 -6 -24 0 -35 9 -15 27 -17 132 -17 82 0 127 4 135 12 8 8 12
53 12 135 0 112 -2 123 -20 133 -15 8 -24 6 -40 -10z"/>
</g>
</svg>
